# xmcd
#
# Track frame offsets:
# 150
# 16365
# 29324
# 42407
# 64197
# 82712
# 105169
# 119129
# 136350
# 153077
# 172129
#
# Disc length: 2604 seconds
#
#
# Revision: 0
# Processed by: cddbd v1.4PL0 Copyright (c) Steve Scherf et al.
# Submitted via: FreeRIP 2.52 
#
DISCID=870a2a0b
DTITLE=Kathy Mattea - Joy For Christmas Day
DYEAR=2003
DGENRE=Country
TTITLE0=Christmas Collage
TTITLE1=Unton Us a Child is Born
TTITLE2=Angels we have heard on high
TTITLE3=Straw against the Chill
TTITLE4=Baby King
TTITLE5=When the Baby Grew Up
TTITLE6=Hark the Herald Angels Sing
TTITLE7=O Come All Ye Faithful
TTITLE8=All because of Him
TTITLE9=Sing Mary Sing
TTITLE10=There's Still My Joy
EXTD=
EXTT0=
EXTT1=
EXTT2=
EXTT3=
EXTT4=
EXTT5=
EXTT6=
EXTT7=
EXTT8=
EXTT9=
EXTT10=
PLAYORDER=
